<?xml version="1.0" standalone="no"?>
<!DOCTYPE svg PUBLIC "-//W3C//DTD SVG 20010904//EN"
 "http://www.w3.org/TR/2001/REC-SVG-20010904/DTD/svg10.dtd">
<svg version="1.0" xmlns="http://www.w3.org/2000/svg"
 width="248.000000pt" height="248.000000pt" viewBox="0 0 248.000000 248.000000"
 preserveAspectRatio="xMidYMid meet">
<metadata>
Created by potrace 1.14, written by Peter Selinger 2001-2017
</metadata>
<g transform="translate(0.000000,248.000000) scale(0.100000,-0.100000)"
fill="#000000" stroke="none">
<path d="M1168 2475 c-2 -1 -34 -5 -73 -8 -158 -14 -358 -82 -484 -165 -269
-178 -396 -465 -337 -762 44 -219 171 -366 421 -490 166 -82 229 -101 565
-175 112 -24 221 -68 228 -92 8 -29 -211 -42 -353 -20 -59 9 -171 45 -213 69
-21 11 -72 39 -116 60 -72 37 -84 40 -142 36 -88 -5 -124 -34 -264 -205 -132
-162 -164 -217 -163 -283 1 -102 67 -172 238 -255 243 -118 483 -174 765 -179
177 -3 268 6 411 45 238 63 423 202 518 391 63 126 79 205 77 378 -2 133 -5
152 -32 225 -55 149 -131 248 -254 330 -158 105 -434 204 -701 250 -96 17
-189 53 -189 74 0 23 96 46 190 45 106 -1 133 -9 310 -87 95 -42 125 -51 176
-51 85 -1 124 27 227 167 151 204 183 275 158 357 -37 123 -325 275 -615 325
-82 14 -338 29 -348 20z"/>
</g>
</svg>
